<svg id="visual" viewBox="0 0 900 600" width="900" height="600" xmlns="http://www.w3.org/2000/svg" xmlns:xlink="http://www.w3.org/1999/xlink" version="1.1"><rect x="0" y="0" width="900" height="600" fill="#0e1216"></rect><path d="M0 442L21.5 427.7C43 413.3 86 384.7 128.8 376.3C171.7 368 214.3 380 257.2 383.8C300 387.7 343 383.3 385.8 377.3C428.7 371.3 471.3 363.7 514.2 374C557 384.3 600 412.7 642.8 421.3C685.7 430 728.3 419 771.2 412.7C814 406.3 857 404.7 878.5 403.8L900 403L900 601L878.5 601C857 601 814 601 771.2 601C728.3 601 685.7 601 642.8 601C600 601 557 601 514.2 601C471.3 601 428.7 601 385.8 601C343 601 300 601 257.2 601C214.3 601 171.7 601 128.8 601C86 601 43 601 21.5 601L0 601Z" fill="#0b1625"></path><path d="M0 436L21.5 432.7C43 429.3 86 422.7 128.8 419.3C171.7 416 214.3 416 257.2 424.3C300 432.7 343 449.3 385.8 449.7C428.7 450 471.3 434 514.2 435.2C557 436.3 600 454.7 642.8 462.5C685.7 470.3 728.3 467.7 771.2 462C814 456.3 857 447.7 878.5 443.3L900 439L900 601L878.5 601C857 601 814 601 771.2 601C728.3 601 685.7 601 642.8 601C600 601 557 601 514.2 601C471.3 601 428.7 601 385.8 601C343 601 300 601 257.2 601C214.3 601 171.7 601 128.8 601C86 601 43 601 21.5 601L0 601Z" fill="#0a1b2f"></path><path d="M0 485L21.5 481.7C43 478.3 86 471.7 128.8 473.7C171.7 475.7 214.3 486.3 257.2 485.2C300 484 343 471 385.8 461.7C428.7 452.3 471.3 446.7 514.2 444.8C557 443 600 445 642.8 444.7C685.7 444.3 728.3 441.7 771.2 448.2C814 454.7 857 470.3 878.5 478.2L900 486L900 601L878.5 601C857 601 814 601 771.2 601C728.3 601 685.7 601 642.8 601C600 601 557 601 514.2 601C471.3 601 428.7 601 385.8 601C343 601 300 601 257.2 601C214.3 601 171.7 601 128.8 601C86 601 43 601 21.5 601L0 601Z" fill="#08203a"></path><path d="M0 527L21.5 528C43 529 86 531 128.8 529.5C171.7 528 214.3 523 257.2 516.3C300 509.7 343 501.3 385.8 504.8C428.7 508.3 471.3 523.7 514.2 522.5C557 521.3 600 503.7 642.8 494.5C685.7 485.3 728.3 484.7 771.2 491.8C814 499 857 514 878.5 521.5L900 529L900 601L878.5 601C857 601 814 601 771.2 601C728.3 601 685.7 601 642.8 601C600 601 557 601 514.2 601C471.3 601 428.7 601 385.8 601C343 601 300 601 257.2 601C214.3 601 171.7 601 128.8 601C86 601 43 601 21.5 601L0 601Z" fill="#052545"></path><path d="M0 548L21.5 544.8C43 541.7 86 535.3 128.8 537.5C171.7 539.7 214.3 550.3 257.2 554.3C300 558.3 343 555.7 385.8 553.7C428.7 551.7 471.3 550.3 514.2 552.5C557 554.7 600 560.3 642.8 557.5C685.7 554.7 728.3 543.3 771.2 544.2C814 545 857 558 878.5 564.5L900 571L900 601L878.5 601C857 601 814 601 771.2 601C728.3 601 685.7 601 642.8 601C600 601 557 601 514.2 601C471.3 601 428.7 601 385.8 601C343 601 300 601 257.2 601C214.3 601 171.7 601 128.8 601C86 601 43 601 21.5 601L0 601Z" fill="#022951"></path></svg>